# xmcd
# 
# Track frame offsets:
#   150
#   19260
#   34797
#   48000
# 
# Disc length: 870 seconds
# 
# Revision: 1
# Processed by: cddbd v1.4PL0 Copyright (c) Steve Scherf et al.
# Submitted via: VOLTOCDX V1.0.21 
# 
DISCID=26036404
DTITLE=Dusty James - Movin On
DYEAR=2002
DGENRE=country
TTITLE0=Drive South
TTITLE1=Summer
TTITLE2=Country Red White and Blue
TTITLE3=Movin On
EXTD=
EXTT0=
EXTT1=
EXTT2=
EXTT3=
PLAYORDER=
